# xmcd CD database file
# Copyright (C) 1997 Ti Kan
# 
# Track frame offsets:
#     150
#     14461
#     29497
#     44742
#     58109
#     69565
#     87554
#     101740
#     116241
#     132896
#     146389
#     157978
#     170483
#     188300
# 
# Disc length: 2713 seconds
# 
# Revision: 2
# Processed by: cddbd v1.4b41PL1 Copyright (c) Steve Scherf et al.
# Submitted via: DiscPlay 4.0.4
# 
DISCID=c50a970e
DTITLE=Gera Samba - O Tchan-na Cabe A E Na Cintura
DYEAR=1900
DGENRE=
TTITLE0=A Dan A Do Bumbum
TTITLE1=Dan A Da Cordinha
TTITLE2=A Lourinha
TTITLE3=Malha  O
TTITLE4=Est Tua
TTITLE5=Dengo De Mulheres
TTITLE6=A Mo Ada Do Samba
TTITLE7=Mel  Do Tchaco Ii
TTITLE8=Samba Que Manda
TTITLE9=Vov  No Samba
TTITLE10=Gera  O 2000
TTITLE11=Mexe, Mexe Mainha
TTITLE12=Nica Paix O
TTITLE13=Procurando T
EXTD=
EXTT0=
EXTT1=
EXTT2=
EXTT3=
EXTT4=
EXTT5=
EXTT6=
EXTT7=
EXTT8=
EXTT9=
EXTT10=
EXTT11=
EXTT12=
EXTT13=
PLAYORDER=
